<?xml version="1.0" standalone="no"?>
<!DOCTYPE svg PUBLIC "-//W3C//DTD SVG 20010904//EN"
 "http://www.w3.org/TR/2001/REC-SVG-20010904/DTD/svg10.dtd">
<svg version="1.0" xmlns="http://www.w3.org/2000/svg"
 width="600.000000pt" height="600.000000pt" viewBox="0 0 600.000000 600.000000"
 preserveAspectRatio="xMidYMid meet">
<metadata>
Created by potrace 1.11, written by Peter Selinger 2001-2013
</metadata>
<g transform="translate(0.000000,600.000000) scale(0.100000,-0.100000)"
fill="#000000" stroke="none">
<path d="M4635 4414 c-408 -63 -605 -277 -605 -658 0 -177 8 -166 -116 -166
l-104 0 0 -205 0 -205 105 0 105 0 0 -785 0 -785 335 0 335 0 0 785 0 785 205
0 205 0 0 205 0 205 -206 0 -207 0 5 103 c6 125 29 183 91 228 62 45 131 61
247 57 l100 -3 0 216 0 217 -63 11 c-86 15 -321 12 -432 -5z"/>
<path d="M491 3598 c0 -7 141 -456 313 -998 l312 -985 374 0 375 0 126 667
c108 575 139 724 139 671 0 -6 56 -309 125 -673 69 -364 125 -664 125 -666 0
-2 168 -4 373 -4 l374 0 303 958 c167 526 309 976 316 1000 l13 42 -359 0
c-198 0 -360 -1 -360 -3 0 -1 -56 -319 -125 -707 -69 -387 -125 -708 -125
-714 -2 -51 -35 115 -141 711 l-124 693 -397 0 -398 0 -5 -22 c-3 -13 -57
-329 -120 -702 -63 -374 -117 -681 -119 -683 -5 -6 1 -40 -136 712 -66 363
-123 672 -126 688 l-6 27 -364 0 c-285 0 -364 -3 -363 -12z"/>
</g>
</svg>
