<svg width="300" height="300" viewBox="0 0 300 300" fill="none" xmlns="http://www.w3.org/2000/svg">
<rect width="300" height="300" fill="black" fill-opacity="0"/>
<rect width="300" height="300" fill="#FF5959"/>
<path d="M50.288 140.264C49.088 140.264 48.296 141.008 48.296 142.16C48.296 143.336 49.088 144.08 50.288 144.08C51.488 144.08 52.304 143.336 52.304 142.16C52.304 141.008 51.488 140.264 50.288 140.264ZM52.184 158V145.208H48.416V158H52.184ZM74.7528 148.064C74.4648 146.312 73.0488 144.872 70.5528 144.872C69.4008 144.872 68.5608 145.112 67.8168 145.616L66.5208 147.344C65.9928 145.928 64.6728 144.872 62.5368 144.872C61.3608 144.872 60.5448 145.112 59.7768 145.616L58.8168 147.2V145.208H55.0488V158H58.8168V151.352C58.8168 148.736 59.5128 147.464 60.9528 147.464C62.1768 147.464 62.8248 148.184 62.9928 149.456C63.0648 150.104 63.0888 150.8 63.0888 151.4V158H66.8328V151.352C66.8328 148.736 67.5528 147.464 68.9928 147.464C70.1928 147.464 70.8648 148.184 71.0088 149.456C71.0808 150.104 71.1048 150.8 71.1048 151.4V158H74.8728V150.44C74.8728 149.408 74.8488 148.712 74.7528 148.064ZM85.0363 158H88.7083C88.5163 156.584 88.4683 155.72 88.4683 154.76V150.872C88.4683 150.128 88.4443 149.408 88.3963 148.808C88.2043 146.528 86.8363 144.872 83.0443 144.872C79.9243 144.872 77.4523 146.528 77.3803 149.456H80.9803C81.0763 148.184 81.7243 147.464 82.9003 147.464C84.0283 147.464 84.6043 148.088 84.6763 148.856C84.7243 149.288 84.7243 149.624 84.7243 149.96V150.176H83.9083C79.3963 150.176 76.9243 151.808 76.9243 154.592C76.9243 157.016 78.8683 158.336 81.0283 158.336C82.2043 158.336 83.2843 158.072 84.1963 157.496L84.7723 156.128L85.0363 158ZM82.5163 155.744C81.4843 155.744 80.7883 155.24 80.7883 154.28C80.7883 152.792 82.3963 152.216 84.7243 152.408V153.344C84.7243 154.928 83.6443 155.744 82.5163 155.744ZM104.218 145.208H100.45V146.888L99.6101 145.544C98.9621 145.136 97.6901 144.872 96.6341 144.872C93.3461 144.872 90.5381 147.128 90.5381 151.712C90.5381 155.504 92.8421 157.976 96.3941 157.976C97.6901 157.976 98.7701 157.664 99.4901 157.136L100.45 155.72V156.056C100.45 156.656 100.426 157.208 100.402 157.664C100.306 159.56 99.0821 160.448 97.2341 160.448C95.6741 160.448 94.6421 159.824 94.5221 158.792L94.4981 158.576H90.8501L90.8741 158.816C91.1621 161.672 93.3701 163.232 97.1381 163.232C101.314 163.232 104.05 161.336 104.194 157.232C104.218 156.536 104.218 155.552 104.218 154.76V145.208ZM97.4021 155.384C95.6261 155.384 94.4021 153.944 94.4021 151.424C94.4021 148.64 95.6981 147.464 97.5221 147.464C98.9381 147.464 100.45 148.424 100.45 151.16V151.4C100.45 154.328 99.1061 155.384 97.4021 155.384ZM119.104 151.376C119.104 147.968 116.992 144.872 112.912 144.872C108.856 144.872 106.288 147.8 106.288 151.64C106.288 156.152 109.096 158.336 112.672 158.336C115.792 158.336 118.192 156.776 118.888 153.824H115.168C114.952 155.024 114.064 155.744 112.744 155.744C111.328 155.744 110.272 155.024 110.056 152.576H119.032C119.08 152.12 119.104 151.712 119.104 151.376ZM112.744 147.464C114.136 147.464 114.976 148.4 115.192 150.2H110.152C110.464 148.304 111.4 147.464 112.744 147.464Z" fill="black"/>
<path d="M122.893 153.968C121.621 153.968 120.709 154.856 120.709 156.152C120.709 157.424 121.621 158.336 122.893 158.336C124.189 158.336 125.077 157.424 125.077 156.152C125.077 154.856 124.189 153.968 122.893 153.968ZM139.643 148.4C139.355 146.168 137.795 144.872 135.107 144.872C133.907 144.872 132.995 145.112 132.131 145.688L131.075 147.224V145.208H127.307V158H131.075V152.072C131.075 148.808 132.179 147.464 133.667 147.464C135.131 147.464 135.851 148.28 135.947 149.576C135.995 150.224 135.995 150.872 135.995 151.352V158H139.763V150.776C139.763 149.744 139.739 149.048 139.643 148.4ZM148.399 144.872C144.151 144.872 141.655 147.608 141.655 151.592C141.655 155.576 144.151 158.336 148.399 158.336C152.623 158.336 155.143 155.576 155.143 151.592C155.143 147.608 152.623 144.872 148.399 144.872ZM148.399 155.744C146.599 155.744 145.519 154.256 145.519 151.592C145.519 148.928 146.599 147.464 148.399 147.464C150.175 147.464 151.255 148.928 151.255 151.592C151.255 154.256 150.175 155.744 148.399 155.744ZM161.678 147.704H164.39V145.304H161.678V142.088H157.91V145.304H155.966V147.704H157.91V153.584C157.91 154.304 157.91 154.88 157.958 155.528C158.102 157.4 159.014 158.312 161.822 158.312C162.638 158.312 163.382 158.24 164.15 158.12V155.72C162.23 155.84 161.798 155.552 161.702 154.28C161.678 153.944 161.678 153.512 161.678 153.08V147.704ZM175.62 160.112V158.048H166.02V160.112H175.62ZM182.46 143.864C182.58 142.76 183.684 142.328 185.244 142.616V140.072C184.812 139.976 184.308 139.904 183.804 139.904C180.348 139.904 178.884 141.272 178.692 143.528C178.668 143.96 178.668 144.56 178.668 144.968V145.304H177.3V147.704H178.668V158H182.412V147.704H185.028V145.304H182.412V144.92C182.412 144.584 182.412 144.2 182.46 143.864ZM192.743 144.872C188.495 144.872 185.999 147.608 185.999 151.592C185.999 155.576 188.495 158.336 192.743 158.336C196.967 158.336 199.487 155.576 199.487 151.592C199.487 147.608 196.967 144.872 192.743 144.872ZM192.743 155.744C190.943 155.744 189.863 154.256 189.863 151.592C189.863 148.928 190.943 147.464 192.743 147.464C194.519 147.464 195.599 148.928 195.599 151.592C195.599 154.256 194.519 155.744 192.743 155.744ZM213.726 145.208H209.982V152.048C209.982 154.4 208.974 155.72 207.438 155.72C205.974 155.72 205.302 154.952 205.134 153.656C205.062 153.008 205.038 152.312 205.038 151.904V145.208H201.294V152.72C201.294 153.752 201.318 154.448 201.414 155.096C201.702 156.848 203.286 158.336 205.926 158.336C207.126 158.336 208.038 158.096 208.902 157.52L209.982 155.816V158H213.726V145.208ZM228.916 148.4C228.628 146.168 227.068 144.872 224.38 144.872C223.18 144.872 222.268 145.112 221.404 145.688L220.348 147.224V145.208H216.58V158H220.348V152.072C220.348 148.808 221.452 147.464 222.94 147.464C224.404 147.464 225.124 148.28 225.22 149.576C225.268 150.224 225.268 150.872 225.268 151.352V158H229.036V150.776C229.036 149.744 229.012 149.048 228.916 148.4ZM244.609 140.36H240.841V146.888L240.001 145.544C239.353 145.136 238.081 144.872 237.025 144.872C233.737 144.872 230.929 147.272 230.929 151.856C230.929 155.648 233.065 158.336 236.593 158.336C237.889 158.336 239.161 158.048 239.881 157.496L240.841 156.08V158H244.609V140.36ZM237.793 155.744C236.017 155.744 234.793 154.16 234.793 151.64C234.793 148.856 236.089 147.464 237.913 147.464C239.329 147.464 240.841 148.424 240.841 151.16V151.76C240.841 154.688 239.497 155.744 237.793 155.744Z" fill="white"/>
</svg>
