<svg width="71" height="38" viewBox="0 0 71 38" fill="none" xmlns="http://www.w3.org/2000/svg">
<rect width="717" height="240" fill="black" fill-opacity="0" transform="translate(3.5 -3.5) scale(0.5)"/>
<path d="M35.036 12.276H28.052L25.604 26.064L23.156 12.42H15.452L13.148 26.028L10.628 12.276H3.5L9.584 31.5H16.82L19.268 18.54L21.716 31.5H28.952L35.036 12.276ZM62.9903 10.836C63.1703 9.144 64.8623 8.46 67.2023 8.856V4.644C66.5543 4.464 65.7983 4.356 65.0423 4.356C59.1023 4.356 56.7983 6.588 56.5103 10.188C56.4743 10.836 56.4743 11.7 56.4743 12.276V12.42H54.4223V16.452H56.4743V31.5H62.9543V16.452H66.8783V12.42H62.9543V12.276C62.9543 11.808 62.9543 11.34 62.9903 10.836Z" fill="black"/>
<rect x="37.5" y="18.5" width="13" height="13" fill="#F64E4E"/>
</svg>
