<svg width="568" height="56" viewBox="0 0 568 56" fill="none" xmlns="http://www.w3.org/2000/svg">
<path d="M63.072 31.552H49.104L44.208 59.128L39.312 31.84H23.904L19.296 59.056L14.256 31.552H0L12.168 70H26.64L31.536 44.08L36.432 70H50.904L63.072 31.552ZM72.8758 15.928C68.8438 15.928 66.1798 18.376 66.1798 22.264C66.1798 26.152 68.8438 28.6 72.8758 28.6C76.9078 28.6 79.5718 26.152 79.5718 22.264C79.5718 18.376 76.9078 15.928 72.8758 15.928ZM79.3558 70V31.552H66.3958V70H79.3558ZM99.81 17.08H86.85V56.392C86.85 59.272 86.85 61.216 86.994 63.232C87.282 68.344 90.666 70.72 96.642 70.72C99.522 70.72 101.826 70.576 104.202 70.36V61.576C100.818 61.72 100.17 61.216 99.954 59.704C99.81 58.768 99.81 57.976 99.81 56.176V17.08ZM121.748 17.08H108.788V56.392C108.788 59.272 108.788 61.216 108.932 63.232C109.22 68.344 112.604 70.72 118.58 70.72C121.46 70.72 123.764 70.576 126.14 70.36V61.576C122.756 61.72 122.108 61.216 121.892 59.704C121.748 58.768 121.748 57.976 121.748 56.176V17.08ZM183.598 28.672C183.958 25.288 187.342 23.92 192.022 24.712V16.288C190.726 15.928 189.214 15.712 187.702 15.712C175.822 15.712 171.214 20.176 170.638 27.376C170.566 28.672 170.566 30.4 170.566 31.552V31.84H166.462V39.904H170.566V70H183.526V39.904H191.374V31.84H183.526V31.552C183.526 30.616 183.526 29.68 183.598 28.672ZM233.849 50.272C233.849 40.336 227.369 30.544 214.553 30.544C201.737 30.544 194.033 39.688 194.033 50.92C194.033 64.456 202.817 71.008 213.833 71.008C223.697 71.008 230.897 66.112 233.129 57.4H220.385C219.881 60.352 217.649 62.224 213.977 62.224C210.305 62.224 207.497 60.424 206.849 54.016H233.633C233.777 52.72 233.849 51.424 233.849 50.272ZM213.905 39.328C217.361 39.328 219.593 41.56 220.313 46.096H207.281C208.145 41.344 210.521 39.328 213.905 39.328ZM278.099 40.984C277.091 34.288 272.411 30.544 264.491 30.544C260.963 30.544 258.227 31.336 255.851 32.776L252.395 37.528V16.72H239.435V70H252.395V51.856C252.395 43.144 255.203 39.328 259.163 39.328C263.051 39.328 265.067 41.488 265.355 45.16C265.499 47.104 265.499 49.192 265.499 50.416V70H278.459V48.256C278.459 45.16 278.387 42.928 278.099 40.984ZM309.027 30.544C306.579 30.544 303.555 31.624 301.467 33.928L298.731 39.328V31.552H285.771V70H298.731V55.888C298.731 44.296 302.259 40.696 311.979 41.344V30.76C311.043 30.616 310.251 30.544 309.027 30.544ZM354.669 40.984C353.661 34.288 348.981 30.544 341.061 30.544C337.533 30.544 334.797 31.336 332.421 32.776L328.965 37.528V31.552H316.005V70H328.965V51.856C328.965 43.144 331.773 39.328 335.733 39.328C339.621 39.328 341.637 41.488 341.925 45.16C342.069 47.104 342.069 49.192 342.069 50.416V70H355.029V48.256C355.029 45.16 354.957 42.928 354.669 40.984ZM378.181 30.544C367.957 30.544 361.333 35.296 361.333 42.928C361.333 49.48 365.725 52.864 373.069 54.592C379.909 56.176 382.357 57.544 382.357 59.992C382.357 62.008 380.557 62.944 378.253 62.944C375.517 62.944 373.213 61 372.493 58.048H359.749C360.757 66.688 367.885 71.008 378.325 71.008C387.613 71.008 395.317 67.192 395.317 58.984C395.317 51.568 390.349 48.544 383.365 46.816C376.021 45.016 374.293 43.576 374.293 41.416C374.293 39.76 375.589 38.608 377.389 38.608C379.693 38.608 380.989 40.12 381.565 42.784H394.309C393.301 35.8 387.757 30.544 378.181 30.544ZM415.932 39.904H424.428V31.84H415.932V21.904H402.972V31.84H396.852V39.904H402.972V55.96C402.972 58.12 402.972 59.92 403.116 62.152C403.548 68.056 406.428 71.008 416.004 71.008C418.74 71.008 421.116 70.792 423.636 70.36V62.296C417.516 62.584 416.292 61.72 416.004 57.832C415.932 56.824 415.932 55.384 415.932 54.088V39.904ZM452.464 30.544C450.016 30.544 446.992 31.624 444.904 33.928L442.168 39.328V31.552H429.208V70H442.168V55.888C442.168 44.296 445.696 40.696 455.416 41.344V30.76C454.48 30.616 453.688 30.544 452.464 30.544ZM477.947 30.544C465.347 30.544 457.283 38.392 457.283 50.776C457.283 63.088 465.347 71.008 477.947 71.008C490.547 71.008 498.611 63.088 498.611 50.776C498.611 38.392 490.547 30.544 477.947 30.544ZM477.947 62.224C473.339 62.224 470.531 58.408 470.531 50.776C470.531 43.072 473.339 39.328 477.947 39.328C482.555 39.328 485.363 43.072 485.363 50.776C485.363 58.408 482.555 62.224 477.947 62.224ZM566.08 40.264C565.216 35.008 560.896 30.544 553.192 30.544C549.664 30.544 547.288 31.336 544.912 32.776L540.88 38.032C539.224 33.784 535.12 30.544 528.568 30.544C525.04 30.544 522.664 31.336 520.288 32.776L517.192 37.744V31.552H504.232V70H517.192V49.696C517.192 43.144 518.848 39.328 523.024 39.328C526.408 39.328 528.136 41.488 528.568 45.16C528.784 47.104 528.856 49.192 528.856 50.416V70H541.816V49.696C541.816 43.144 543.472 39.328 547.648 39.328C551.032 39.328 552.76 41.488 553.192 45.16C553.408 47.104 553.48 49.192 553.48 50.416V70H566.44V47.536C566.44 44.44 566.368 42.208 566.08 40.264Z" transform="translate(0 -15)" fill="white"/>
<rect width="26" height="26.0724" transform="translate(133 16)" fill="#F64E4E"/>
</svg>
